<svg id="Layer_1" data-name="Layer 1" xmlns="http://www.w3.org/2000/svg" viewBox="0 0 689.89 512"><defs><style>.cls-1,.cls-12,.cls-13,.cls-14,.cls-15{fill:#edf8fa;}.cls-2{fill:#bfd4ce;}.cls-3{fill:#2f3144;}.cls-10,.cls-11,.cls-4,.cls-5,.cls-6,.cls-7,.cls-8,.cls-9{fill:none;}.cls-4,.cls-5,.cls-6,.cls-7{stroke:#2c2d43;}.cls-10,.cls-11,.cls-12,.cls-13,.cls-14,.cls-15,.cls-4,.cls-5,.cls-6,.cls-7,.cls-8,.cls-9{stroke-miterlimit:10;}.cls-4,.cls-8{stroke-width:16px;}.cls-10,.cls-5{stroke-width:12px;}.cls-6,.cls-9{stroke-width:11px;}.cls-11,.cls-7{stroke-width:9px;}.cls-10,.cls-11,.cls-8,.cls-9{stroke:#4d646c;}.cls-12,.cls-13,.cls-14,.cls-15{stroke:#edf8fa;}.cls-13{stroke-width:4px;}.cls-14{stroke-width:10px;}.cls-15{stroke-width:20px;}.cls-16{fill:#010101;}</style></defs><title>Artboard 1 copy 5</title><circle class="cls-1" cx="225.62" cy="156.54" r="7.5"/><circle class="cls-2" cx="195.13" cy="255.96" r="134"/><path class="cls-3" d="M195.12,128a128,128,0,1,1-90.5,37.49A127.18,127.18,0,0,1,195.12,128m0-12a140,140,0,1,0,140,140,140,140,0,0,0-140-140Z"/><line class="cls-4" x1="210.12" y1="307.41" x2="95.12" y2="279.41"/><line class="cls-4" x1="68.12" y1="293.04" x2="94.12" y2="279.41"/><line class="cls-4" x1="210.12" y1="307.41" x2="165.12" y2="212.41"/><line class="cls-5" x1="297.12" y1="343.04" x2="258.12" y2="333.41"/><line class="cls-4" x1="120.12" y1="190.41" x2="94.12" y2="279.04"/><line class="cls-6" x1="151.62" y1="132.91" x2="120.62" y2="189.91"/><line class="cls-6" x1="256.12" y1="138.04" x2="226.62" y2="153.91"/><line class="cls-7" x1="210.62" y1="240.91" x2="286.12" y2="279.04"/><line class="cls-4" x1="210.12" y1="307.41" x2="258.12" y2="333.41"/><line class="cls-6" x1="165.62" y1="211.91" x2="226.62" y2="153.91"/><line class="cls-7" x1="279.62" y1="202.91" x2="325.62" y2="225.91"/><line class="cls-7" x1="284.12" y1="156.04" x2="279.62" y2="202.91"/><line class="cls-6" x1="167.62" y1="355.91" x2="206.12" y2="389.04"/><line class="cls-8" x1="168.12" y1="356.41" x2="94.12" y2="279.41"/><line class="cls-8" x1="211.12" y1="241.41" x2="94.12" y2="279.41"/><line class="cls-8" x1="209.12" y1="307.41" x2="168.12" y2="355.41"/><line class="cls-9" x1="167.62" y1="355.91" x2="100.12" y2="351.04"/><line class="cls-10" x1="256.12" y1="376.04" x2="259.12" y2="333.41"/><line class="cls-11" x1="331.12" y1="265.04" x2="286.62" y2="278.91"/><line class="cls-10" x1="286.12" y1="279.41" x2="259.12" y2="332.41"/><line class="cls-9" x1="226.62" y1="153.91" x2="210.62" y2="240.91"/><line class="cls-9" x1="120.62" y1="189.91" x2="164.62" y2="211.91"/><line class="cls-9" x1="72.12" y1="199.04" x2="120.62" y2="189.91"/><line class="cls-8" x1="279.12" y1="203.04" x2="210.12" y2="306.41"/><line class="cls-9" x1="226.62" y1="153.91" x2="151.62" y2="132.91"/><circle class="cls-12" cx="151.62" cy="132.91" r="7.5"/><circle class="cls-13" cx="165.12" cy="212.04" r="7.5"/><circle class="cls-14" cx="226.62" cy="153.91" r="7.5"/><circle class="cls-13" cx="279.62" cy="202.91" r="7.5"/><circle class="cls-13" cx="286.62" cy="278.91" r="7.5"/><circle class="cls-13" cx="210.62" cy="240.91" r="7.5"/><circle class="cls-15" cx="94.62" cy="278.91" r="7.5"/><circle class="cls-14" cx="167.62" cy="353.91" r="7.5"/><circle class="cls-14" cx="258.62" cy="332.91" r="7.5"/><circle class="cls-14" cx="120.62" cy="189.91" r="7.5"/><path class="cls-3" d="M195.12,128a128,128,0,1,1-90.5,37.49A127.14,127.14,0,0,1,195.12,128m0-12a140,140,0,1,0,140,140,140,140,0,0,0-140-140Z"/><circle class="cls-1" cx="210.62" cy="307.91" r="27.5"/><path class="cls-16" d="M431.37,243q0,13.28-8.29,20.29t-23.57,7H392V299.5H374.61V217.33h26.25q14.94,0,22.73,6.44T431.37,243ZM392,256h5.74q8,0,12-3.18t4-9.24q0-6.12-3.34-9.05T400,231.61H392Z"/><path class="cls-16" d="M494.21,299.5H446.89V217.33h47.32v14.28h-29.9v18h27.82v14.27H464.31v21.19h29.9Z"/><path class="cls-16" d="M558.67,299.5H511.35V217.33h47.32v14.28h-29.9v18h27.82v14.27H528.77v21.19h29.9Z"/><path class="cls-16" d="M610.71,230.68q-9.84,0-15.23,7.39t-5.4,20.6q0,27.48,20.63,27.48,8.65,0,21-4.33v14.62a58.18,58.18,0,0,1-22.59,4.21q-17.93,0-27.43-10.87t-9.49-31.22q0-12.83,4.66-22.45a33.71,33.71,0,0,1,13.41-14.79,39.7,39.7,0,0,1,20.48-5.14,55.25,55.25,0,0,1,24,5.79l-5.62,14.16a93.84,93.84,0,0,0-9.27-3.82A27.56,27.56,0,0,0,610.71,230.68Z"/></svg>